<svg width="343" height="352" viewBox="0 0 343 352" fill="none" xmlns="http://www.w3.org/2000/svg">
<path d="M333.7 67.6475V342.305L199.879 204.914V67.6475H333.7Z" fill="#111111"/>
<path d="M333.695 342.288H65.9316V204.897H199.874L333.695 342.288Z" fill="#111111"/>
<path d="M199.753 67.6475H65.9316V205.038H199.753V67.6475Z" fill="#111111"/>
<path d="M333.704 67.6313H65.9416L8.71094 8.92676H276.473L333.704 67.6313Z" fill="#111111"/>
<path d="M65.9424 67.6312V342.289L8.71094 283.46V8.92676L65.9424 67.6312Z" fill="#111111"/>
<path d="M279.984 0H17.3024H0V30.283V287.193L41.9855 330.383L62.3127 351.234H342.296V63.9171L279.984 0ZM57.3519 320.827L17.4234 279.87V30.283L57.3519 71.2396V320.827ZM29.5229 17.7479H272.845L312.774 58.7044H69.5724L29.5229 17.7479ZM191.173 76.4523V196.095H74.5332V76.4523H191.173ZM74.6543 333.362V213.719H196.255L312.895 333.362H74.6543ZM325.115 320.827L208.475 201.308V76.4523H325.115V320.827Z" fill="black"/>
<path d="M279.984 0H17.3024H0V30.283V287.193L41.9855 330.383L62.3127 351.234H342.296V63.9171L279.984 0ZM57.3519 320.827L17.4234 279.87V30.283L57.3519 71.2396V320.827ZM29.5229 17.7479H272.845L312.774 58.7044H69.5724L29.5229 17.7479ZM191.173 76.4523V196.095H74.5332V76.4523H191.173ZM74.6543 333.362V213.719H196.255L312.895 333.362H74.6543ZM325.115 320.827L208.475 201.308V76.4523H325.115V320.827Z" fill="black"/>
</svg>
