<svg width="96" height="37" viewBox="0 0 96 37" fill="none" xmlns="http://www.w3.org/2000/svg">
<path d="M95.1183 7.3457V35.497L81.4023 21.415V7.3457H95.1183Z" fill="#40FFFF"/>
<path d="M95.1183 35.497H67.6738V21.415H81.4023L95.1183 35.497Z" fill="#40FFFF"/>
<path d="M81.3898 7.3457H67.6738V21.4277H81.3898V7.3457Z" fill="#40FFFF"/>
<path d="M95.1189 7.3461H67.6745L61.8086 1.32812H89.253L95.1189 7.3461Z" fill="#40FFFF"/>
<path d="M67.6744 7.34509V35.4963L61.8086 29.4666V1.32812L67.6744 7.34509Z" fill="#40FFFF"/>
<path d="M89.613 0.412109H62.6894H60.916V3.516V29.8482L65.2193 34.275L67.3028 36.4121H95.9998V6.96335L89.613 0.412109ZM66.7943 33.2955L62.7018 29.0976V3.516L66.7943 7.71388V33.2955ZM63.942 2.23119H88.8813L92.9738 6.42907H68.0469L63.942 2.23119ZM80.5103 8.24815V20.511H68.5553V8.24815H80.5103ZM68.5677 34.5803V22.3174H81.0312L92.9862 34.5803H68.5677ZM94.2388 33.2955L82.2837 21.0453V8.24815H94.2388V33.2955Z" fill="black"/>
<path d="M95.1183 7.3457V35.497L81.4023 21.415V7.3457H95.1183Z" fill="#40FFFF"/>
<path d="M95.1183 35.497H67.6738V21.415H81.4023L95.1183 35.497Z" fill="#40FFFF"/>
<path d="M81.3898 7.3457H67.6738V21.4277H81.3898V7.3457Z" fill="#40FFFF"/>
<path d="M95.1189 7.3461H67.6745L61.8086 1.32812H89.253L95.1189 7.3461Z" fill="#40FFFF"/>
<path d="M67.6744 7.34509V35.4963L61.8086 29.4666V1.32812L67.6744 7.34509Z" fill="#40FFFF"/>
<path d="M89.613 0.412109H62.6894H60.916V3.516V29.8482L65.2193 34.275L67.3028 36.4121H95.9998V6.96335L89.613 0.412109ZM66.7943 33.2955L62.7018 29.0976V3.516L66.7943 7.71388V33.2955ZM63.942 2.23119H88.8813L92.9738 6.42907H68.0469L63.942 2.23119ZM80.5103 8.24815V20.511H68.5553V8.24815H80.5103ZM68.5677 34.5803V22.3174H81.0312L92.9862 34.5803H68.5677ZM94.2388 33.2955L82.2837 21.0453V8.24815H94.2388V33.2955Z" fill="black"/>
<path d="M15.5759 32.418H12.3516V35.7254H15.5759V32.418Z" fill="white"/>
<path d="M21.2322 32.418H18.0078V35.7254H21.2322V32.418Z" fill="white"/>
<path d="M0 36.3995V33.1557H2.34388C3.18718 33.1557 3.64604 32.685 3.64604 31.82V18.374H6.90763V26.9479H15.167V18.3995H18.3914V26.9479H44.1245V18.374H47.3489V29.8228H6.90763V31.82C6.90763 33.092 6.46117 34.1352 5.51866 35.1147C4.61335 35.967 3.53442 36.4122 2.34388 36.4122H0V36.3995Z" fill="white"/>
<path d="M53.7838 11.7588H51.043V29.8224H53.7838V11.7588Z" fill="white"/>
<path d="M50.375 10.7555V6.42969H53.4506V7.7656H51.6772V9.41959H54.4675V10.7555H50.375Z" fill="white"/>
<path d="M47.3494 12.4082H44.125V15.7156H47.3494V12.4082Z" fill="white"/>
<path d="M89.613 0.412109H62.6894H60.916V3.516V29.8482L65.2193 34.275L67.3028 36.4121H95.9998V6.96335L89.613 0.412109ZM66.7943 33.2955L62.7018 29.0976V3.516L66.7943 7.71388V33.2955ZM63.942 2.23119H88.8813L92.9738 6.42907H68.0469L63.942 2.23119ZM80.5103 8.24815V20.511H68.5553V8.24815H80.5103ZM68.5677 34.5803V22.3174H81.0312L92.9862 34.5803H68.5677ZM94.2388 33.2955L82.2837 21.0453V8.24815H94.2388V33.2955Z" fill="black"/>
</svg>
