<svg width="242" height="207" viewBox="0 0 242 207" fill="none" xmlns="http://www.w3.org/2000/svg">
<path fill-rule="evenodd" clip-rule="evenodd" d="M0 0.0888672V84.5286L11.7528 94.5513H0V99.5433H15.8996L15.8991 168.387L0 154.831V161.901L11.7528 171.925H0V176.917H17.6171L31.1699 188.469H0V193.461H35.3168L35.3167 207H41.1753L41.1755 196.989L52.9082 207H242V50.2529H240.37L226.819 38.7003H242V33.7084H226.814V33.7036H220.938L215.8 29.3219L201.545 17.1829H116.654V17.1781H110.798L105.635 12.7726L91.3792 0.633567H6.48804V0.628794H0.632688L0 0.0888672ZM88.9549 5.62553H6.49364L20.0459 17.1781H102.507L93.4725 9.47324L88.9549 5.62553ZM14.0435 89.4306L14.8812 90.1458L15.8996 91.0135V20.7111L2.34737 9.149V79.461L14.0435 89.4306ZM67.1341 22.1701V57.3237L106.653 91.0135L106.655 22.1701H67.1341ZM61.2765 22.1701H21.7567V55.8647H61.2765V22.1701ZM199.12 22.1749H116.659L130.211 33.7275H212.672L199.12 22.1749ZM124.161 105.942L125.046 106.695L126.064 107.563V37.2604L112.513 25.6983V96.0103L124.161 105.942ZM177.298 38.7194V73.8682L216.817 107.563L216.818 38.7194H177.298ZM171.442 38.7194H131.921V72.4141H171.442V38.7194ZM222.676 42.2286V112.541L236.226 124.093V53.7907L222.676 42.2286ZM62.9985 60.8567H21.7567V94.5466H25.8996V94.5513H102.507L62.9985 60.8567ZM173.164 77.406H131.921L131.922 111.101H136.063H212.672L173.164 77.406ZM108.364 99.5481H25.9069L39.4569 111.101H121.914L108.364 99.5481ZM24.3644 175.605L34.2973 184.064L35.3084 184.927V114.634L21.7589 103.072L21.7583 173.383L24.3644 175.605ZM86.5445 116.093V151.241L126.063 184.936V116.093H86.5445ZM80.6864 116.093H41.1676V149.787H80.6864V116.093ZM218.529 116.097H136.068L149.62 127.65H232.081L218.529 116.097ZM131.921 189.933L144.463 200.613L145.474 201.476V131.183L131.922 119.621L131.921 189.933ZM196.708 132.642V167.796L236.226 201.485V132.642H196.708ZM190.851 132.642H151.33V166.337H190.851V132.642ZM82.4077 154.779H41.1676V188.469H45.3161V188.474H121.914L82.4077 154.779ZM192.573 171.329H151.33L151.331 205.018H155.481H232.079L192.573 171.329ZM127.784 193.466H45.3245L58.874 205.018H141.335L127.784 193.466Z" fill="#0DF6F6"/>
</svg>
