<svg width="941" height="239" viewBox="0 0 941 239" fill="none" xmlns="http://www.w3.org/2000/svg">
<mask id="mask0" mask-type="alpha" maskUnits="userSpaceOnUse" x="0" y="0" width="941" height="239">
<rect width="941" height="239" fill="#40FFFF"/>
</mask>
<g mask="url(#mask0)">
<path d="M-368.645 -63H-377V42.0562L-360.778 63.5468V65.4475L-360.779 164.021L-344.553 185.518V187.413L-344.553 285.98L-328.333 307.471V407.945L-312.113 429.436V529.911L-295.886 551.408V553.3L-295.886 651.872L-279.666 673.362L-279.665 675.263L-279.666 773.835L-262.008 797.229L-186.171 797.229L-169.948 818.722L-94.0883 818.721L-77.8892 840.181L-2.05283 840.181L14.1706 861.674L90.0097 861.673L106.233 883.163L182.092 883.163L198.29 904.624L274.126 904.623L290.352 926.115H366.188L382.409 947.606L458.269 947.605L474.472 969.066H550.307L566.529 990.558L642.37 990.557L658.591 1012.05H734.45L750.648 1033.51L826.484 1033.51L842.706 1055L922 1055V949.936L916.256 942.323L905.783 928.46V827.97L900.035 820.358L889.557 806.483V706.012L883.809 698.399L873.335 684.535V584.046L867.592 576.434L857.119 562.57V462.081L851.37 454.468L840.888 440.594V340.124L835.144 332.509L824.671 318.646V218.153L818.923 210.544L807.01 194.774H736.072V194.768L731.179 194.774L726.865 189.053L714.953 173.284H644.01V173.278L639.098 173.284L634.808 167.594L622.895 151.824H551.953V151.818H547.059L542.746 146.103L530.833 130.334H459.89V130.328H454.997L450.684 124.613L438.771 108.843H367.833V108.837H362.921L358.626 103.147L346.714 87.3838H275.776V87.3776H270.883L266.569 81.6629L266.564 81.6567L266.555 81.6443L254.652 65.8933H183.714V65.8871H178.82L174.507 60.1724L162.59 44.4028H91.652V44.3966H86.7416L82.4481 38.7067L70.535 22.9433H-0.404968V22.9371H-5.29852L-9.61304 17.2162L-21.5261 1.45284H-92.4666V1.44664H-97.3597L-101.674 -4.27424L-113.587 -20.0438H-184.527H-189.438L-193.731 -25.7338L-205.644 -41.5034H-276.584V-41.5096H-281.478L-285.792 -47.2242L-297.705 -62.9938H-368.645V-63ZM-368.641 -56.5114H-299.731L-288.406 -41.5034H-357.316L-368.641 -56.5114ZM-372.106 39.3754V-51.9297L-360.781 -36.9155V54.3772L-372.106 39.3754ZM-317.967 10.6223V-35.0209H-284.941L-284.941 54.3772L-317.967 10.6223ZM-355.886 -35.0209H-322.861V8.72777H-355.886V-35.0209ZM-276.58 -35.0209H-207.67L-196.345 -20.0129H-265.255L-276.58 -35.0209ZM-269.571 74.7409L-270.311 73.7626L-280.045 60.8658L-280.045 -30.4393L-268.72 -15.425V75.8677L-269.571 74.7409ZM-184.523 -13.5552H-115.613L-104.288 1.44664H-173.198L-184.523 -13.5552ZM-225.905 32.1128V-13.5304H-192.881L-192.882 75.8677L-225.905 32.1128ZM-263.826 -13.5304H-230.799V30.2244H-263.826V-13.5304ZM-187.986 82.3254V-8.97972L-176.663 6.03452V97.3272L-187.986 82.3254ZM-133.848 53.5785V7.92905H-100.823L-100.823 97.3272L-133.848 53.5785ZM-171.768 7.92905H-138.742V51.684H-171.768V7.92905ZM-92.4619 7.93525H-23.552L-19.7768 12.9318L-12.2269 22.9371H-81.1367L-92.4619 7.93525ZM-85.4527 117.691L-86.1527 116.762L-95.9268 103.816V12.5107L-84.6017 27.525V118.818L-85.4527 117.691ZM-355.886 15.2164H-321.422L-288.406 58.9651H-352.424H-355.886L-355.886 15.2164ZM-41.7869 75.069V29.4196H-8.76108L-8.76202 118.818L-41.7869 75.069ZM-79.7072 29.4196H-46.6818V73.1744H-79.7072V29.4196ZM-0.400757 29.4258H68.5091L79.8338 44.4276H10.9239L-0.400757 29.4258ZM6.608 139.181L5.86819 138.203L-3.86566 125.306V34.0012L7.45901 49.0154V140.308L6.608 139.181ZM-263.826 36.7068H-229.361L-196.345 80.4555H-263.825L-263.826 36.7068ZM91.6562 50.8852H160.566L171.89 65.8871H102.98L91.6562 50.8852ZM50.2733 96.5533V50.91H83.2982L83.2977 140.308L50.2733 96.5533ZM12.3535 50.91H45.3793V94.6649H12.3535V50.91ZM88.1936 146.772V55.4669L99.5169 70.4812V161.774L88.1936 146.772ZM-171.768 58.1664H-137.304L-104.288 101.921H-168.306V101.915H-171.768V58.1664ZM-352.42 65.4537H-283.511L-272.186 80.4555H-341.095L-352.42 65.4537ZM-355.885 161.34V70.0292L-344.56 85.0496V176.342L-355.885 161.34ZM142.33 118.019V72.3696H175.357V161.774L142.33 118.019ZM104.41 72.3696H137.437V116.124H104.41V72.3696ZM183.718 72.3758H252.628L263.952 87.3776H195.042L183.718 72.3758ZM190.724 182.131L189.971 181.128L180.255 168.256V76.9512L191.579 91.9716V183.258L190.724 182.131ZM-79.7072 79.6568H-45.2429L-12.2269 123.412H-76.2451V123.406H-79.7072V79.6568ZM-301.745 132.587V86.938L-268.72 86.9442L-268.72 176.342L-301.745 132.587ZM-339.666 86.938H-306.64V130.693H-339.666V86.938ZM-260.36 86.9442H-191.451L-180.126 101.952H-249.036L-260.36 86.9442ZM-253.345 196.7L-263.826 182.831L-263.825 91.5258L-252.5 106.54V197.82L-253.345 196.7ZM234.392 139.509V93.86H267.42V183.258L234.392 139.509ZM196.472 93.86H229.499V137.615H196.472V93.86ZM275.78 93.8662H344.69L356.014 108.868H287.104L275.78 93.8662ZM282.786 203.622L282.047 202.644L272.313 189.747V98.4417L283.636 113.462V204.749L282.786 203.622ZM12.3535 101.147H46.8182L79.8338 144.902H15.8142H12.354L12.3535 101.147ZM-168.302 108.404H-99.3922L-88.067 123.412H-156.976L-168.302 108.404ZM-209.686 154.078V108.435H-176.66V197.833L-209.686 154.078ZM-247.606 108.435H-214.58V152.19H-247.606V108.435ZM-171.766 204.29V112.985L-160.442 128V219.292L-171.766 204.29ZM367.838 115.326H436.748L448.071 130.334H379.161L367.838 115.326ZM326.454 161V115.35H359.477V204.749L326.454 161ZM288.534 115.35H321.557V159.105H288.534V115.35ZM364.375 211.213V119.907L375.694 134.922V226.214L364.375 211.213ZM104.41 122.607H138.877L171.89 166.362H107.873H104.41V122.607ZM-117.627 175.537V129.894H-84.6017L-84.6021 219.292L-117.627 175.537ZM-155.548 129.894H-122.521V173.649H-155.548V129.894ZM-76.239 129.9H-7.3324L3.99088 144.902H-64.9157L-76.239 129.9ZM-69.2274 239.65L-77.5279 228.666L-79.7057 225.781L-79.7053 134.476L-68.3825 149.49V240.77L-69.2274 239.65ZM418.512 182.459V136.816H451.534V226.214L418.512 182.459ZM380.592 136.816H413.614V180.565H380.592V136.816ZM459.895 136.816H528.805L532.581 141.819L540.133 151.818H471.224L459.895 136.816ZM-339.666 137.175L-305.201 137.181L-272.186 180.93H-336.198V180.924H-339.665L-339.666 137.175ZM466.905 246.578L466.204 245.649L456.432 232.703V141.398L467.756 156.412V247.705L466.905 246.578ZM196.472 144.097H230.934L263.943 187.84L263.952 187.852H199.935H196.472V144.097ZM-25.5663 197.028V151.385H7.45761V240.783L-25.5663 197.028ZM-63.4861 151.385H-30.4617V195.139H-63.4861V151.385ZM15.8189 151.391H84.7283L96.0534 166.393H27.1435L15.8189 151.391ZM22.8342 261.14L12.3535 247.271L12.354 155.966L23.6786 170.98V262.261L22.8342 261.14ZM510.569 203.95V158.307H543.596V247.705L510.569 203.95ZM472.649 158.307H505.676V202.055H472.649V158.307ZM551.957 158.307H620.867L632.191 173.308H563.281L551.957 158.307ZM-247.606 158.672H-213.142L-180.127 202.421H-244.138V202.414H-247.606V158.672ZM558.967 268.068L548.494 254.193V162.882L559.818 177.903V269.195L558.967 268.068ZM288.534 165.588H322.996L356.014 209.343H291.992H288.534V165.588ZM107.878 172.85H176.788L188.111 187.852H119.201L107.878 172.85ZM66.4934 218.525V172.875H99.5169V262.273L66.4934 218.525ZM28.5727 172.875H61.5985V216.63H28.5727V172.875ZM104.415 268.731V177.426L115.738 192.446V283.733L104.415 268.731ZM644.015 179.766H712.924L724.248 194.774H655.338L644.015 179.766ZM602.631 225.44V179.797H635.654V269.189L602.631 225.44ZM564.711 179.797H597.738V223.546H564.711V179.797ZM-155.548 180.131H-121.083L-88.067 223.886H-152.08V223.88H-155.547L-155.548 180.131ZM640.551 275.653V184.348L651.875 199.362V290.655L640.551 275.653ZM380.592 187.047L415.053 187.054L448.071 230.802H384.055H380.592V187.047ZM-336.194 187.413H-267.284L-255.959 202.421H-324.869L-336.194 187.413ZM-339.659 283.299L-339.658 191.994L-328.335 207.009V298.301L-339.659 283.299ZM158.552 239.984V194.335H191.579V283.733L158.552 239.984ZM120.632 194.335H153.659V238.089H120.632V194.335ZM199.94 194.341H268.845L280.169 209.343H211.263L199.94 194.341ZM206.95 304.096L198.617 293.057L196.472 290.221V198.922L207.796 213.937V305.211L206.95 304.096ZM694.689 246.9V201.257H727.716V290.655L694.689 246.9ZM656.768 201.257H689.796V245.012H656.768V201.257ZM736.077 201.257H804.986L816.31 216.265H747.4L736.077 201.257ZM-63.4861 201.622H-29.0233L3.99088 245.377H-60.0193V245.371H-63.4861V201.622ZM743.087 311.018L742.33 310.015L732.609 297.143V205.838L743.937 220.853V312.145L743.087 311.018ZM472.649 208.544H507.116L540.133 252.293H476.112H472.649V208.544ZM-285.519 254.546V208.903H-252.494V298.301L-285.519 254.546ZM-323.44 208.903H-290.413V252.658H-323.44V208.903ZM-244.131 208.909H-175.221L-163.898 223.911H-232.808L-244.131 208.909ZM-237.124 318.665L-237.877 317.668L-247.599 304.79L-247.598 213.485L-236.273 228.499V319.792L-237.124 318.665ZM250.614 261.475V215.825H283.636V305.223L250.614 261.475ZM212.694 215.825H245.716V259.58H212.694V215.825ZM291.997 215.831H360.907L372.231 230.833H303.321L291.997 215.831ZM299.012 325.581L288.534 311.712V220.407L299.858 235.427V326.701L299.012 325.581ZM786.751 268.39V222.747H819.778V312.145L786.751 268.39ZM748.83 222.747H781.858V266.496H748.83V222.747ZM28.5727 223.112H63.0374L96.0515 266.861H32.0418H28.5732L28.5727 223.112ZM564.711 230.028L599.177 230.034L632.191 273.783H564.711V230.028ZM-152.075 230.369H-83.1664L-71.8408 245.371H-140.751L-152.075 230.369ZM-193.459 276.037V230.394H-160.435V319.792L-193.459 276.037ZM-231.378 230.394H-198.353V274.148H-231.378V230.394ZM-155.539 326.256V234.944L-144.216 249.958V341.251L-155.539 326.256ZM384.055 237.291H452.969L464.293 252.293H395.383L384.055 237.291ZM342.671 282.965V237.316H375.698V326.72L342.671 282.965ZM304.751 237.316H337.778V281.07H304.751V237.316ZM380.592 333.171V261.091V241.866L391.915 256.887V348.179L380.592 333.171ZM120.632 244.572H155.098L188.111 288.327H124.099V288.321H120.632V244.572ZM656.768 251.494H691.235L724.248 295.249H660.231V295.243H656.768V251.494ZM-101.401 297.503V251.853H-68.3755L-68.3759 341.251L-101.401 297.503ZM-139.322 251.853H-106.296V295.608H-139.322V251.853ZM-60.0124 251.859H8.89612L20.2198 266.861H-48.6895L-60.0124 251.859ZM-53.0059 361.615L-53.7401 360.643L-63.48 347.74V317.303L-63.4796 256.435L-52.1554 271.449V362.742L-53.0059 361.615ZM434.733 304.425V258.775H467.756V348.179L434.733 304.425ZM396.813 258.775H429.836V302.53H396.813V258.775ZM476.121 258.781H545.026L556.35 273.783H487.445L476.121 258.781ZM-323.44 259.14H-288.975L-255.959 302.895H-319.978V302.889H-323.44V259.14ZM483.131 368.537L474.831 357.547L472.654 354.662V263.363L483.977 278.377V369.658L483.131 368.537ZM212.694 266.062H247.156L280.169 309.817H216.161V309.811H212.694V266.062ZM748.83 272.984H783.297L816.31 316.739H752.289H748.83V272.984ZM-9.34058 318.993V273.344H23.6852L23.6847 362.742L-9.34058 318.993ZM-47.2609 273.344H-14.2351V317.098H-47.2609V273.344ZM32.0479 273.35H100.956L112.28 288.352H43.3711L32.0479 273.35ZM39.0547 383.105L38.3018 382.108L28.5806 369.23L28.5811 277.925L39.9062 292.939V384.232L39.0547 383.105ZM526.791 325.915V280.272H559.818L559.813 369.664L526.791 325.915ZM488.87 280.272H521.898V324.02H488.87V280.272ZM568.179 280.272H637.089L648.412 295.274H579.502L568.179 280.272ZM-231.378 280.631H-196.914L-163.898 324.38H-227.918H-230.872H-231.378V280.631ZM575.193 390.027L564.711 376.152V284.853L576.035 299.868V391.148L575.193 390.027ZM304.751 287.553H339.218L372.231 331.308H308.223V331.302H304.751V287.553ZM124.104 294.809H193.014L204.337 309.811H135.428L124.104 294.809ZM82.7206 340.477V294.834H115.743V384.232L82.7206 340.477ZM44.8003 294.834H77.826V338.589H44.8003V294.834ZM120.641 390.696V299.391L131.965 314.405V405.698L120.641 390.696ZM660.236 301.731H729.146L740.47 316.739H671.56L660.236 301.731ZM618.853 347.406V301.762H651.875V391.16L618.853 347.406ZM580.932 301.762H613.96V345.511H580.932V301.762ZM-139.322 302.09H-104.857L-71.8408 345.845H-135.859H-139.321L-139.322 302.09ZM656.773 397.618V306.313L668.097 321.327V412.62L656.773 397.618ZM396.813 309.012H431.275L464.293 352.767H400.276V352.761H396.813V309.012ZM-319.971 309.378H-251.065L-239.742 324.38H-308.648L-319.971 309.378ZM-323.438 405.264L-323.438 313.959L-312.114 328.974V420.26L-323.438 405.264ZM174.778 361.943V316.294L207.805 316.3L207.8 405.698L174.778 361.943ZM136.858 316.294H169.885V360.048H136.858V316.294ZM216.166 316.3H285.076L296.4 331.302H227.49L216.166 316.3ZM223.171 426.055L222.438 425.083L212.698 412.18V320.875L224.022 335.896V427.182L223.171 426.055ZM710.91 368.865V323.222H743.937V412.62L710.91 368.865ZM672.99 323.222H706.017V366.97H672.99V323.222ZM752.293 323.228H821.203L832.532 338.23H763.622L752.293 323.228ZM-47.2609 323.581H-12.7957L20.2198 367.336H-43.7979V367.33H-47.2599L-47.2609 323.581ZM759.308 432.977L748.83 419.108V327.803L760.154 342.818V434.098L759.308 432.977ZM488.87 330.509H523.337L556.35 374.258H492.338V374.252H488.87V330.509ZM-269.299 376.511V330.868H-236.274L-236.275 420.26L-269.299 376.511ZM-307.219 330.868H-274.195V374.617H-307.219V330.868ZM-227.914 330.868H-159.004L-147.679 345.876H-216.588L-227.914 330.868ZM-220.905 440.629L-221.645 439.649L-231.378 426.755L-231.378 335.45L-225.721 342.948L-220.054 350.464V441.756L-220.905 440.629ZM266.84 383.433V337.784H299.863V427.188L266.84 383.433ZM228.92 337.784H261.942V381.539H228.92V337.784ZM308.228 337.79H377.138L388.462 352.792H319.552L308.228 337.79ZM315.233 447.547L314.481 446.551L304.76 433.671V342.366L316.084 357.386V448.675L315.233 447.547ZM802.968 390.355V344.712H835.995V434.11L802.968 390.355ZM765.052 344.712H798.074V388.467H765.052V344.712ZM44.8003 345.071H79.2645L112.28 388.826H48.261H44.8003V345.071ZM580.932 352H615.394L648.408 395.748H584.4V395.742H580.932V352ZM-135.853 352.334H-66.9468L-55.6235 367.336H-124.53L-135.853 352.334ZM-177.239 398.002V352.359H-144.215L-144.216 441.755L-177.239 398.002ZM-215.159 352.359H-182.133V396.114H-215.159V352.359ZM-139.32 448.214V356.909L-127.996 371.93V463.214L-139.32 448.214ZM400.285 359.25H469.191L480.519 374.252H411.609L400.285 359.25ZM358.902 404.924V359.275H391.925V448.674L358.902 404.924ZM320.977 359.275H354.004V403.029H320.977V359.275ZM396.818 455.137V363.831L408.141 378.846V470.138L396.818 455.137ZM136.858 366.531H171.32L204.337 410.286H140.321H136.858V366.531ZM672.99 373.453L707.457 373.459L740.47 417.208H676.458H672.99V373.453ZM-85.1807 419.461V373.818H-52.1563L-52.1568 463.214L-85.1807 419.461ZM-123.1 373.818H-90.0761V417.573H-123.1V373.818ZM-43.7922 373.824H25.1143L36.4376 388.826H-32.4685L-43.7922 373.824ZM-47.259 469.704L-47.2585 378.4L-35.9357 393.414V484.706L-47.259 469.704ZM450.96 426.383V380.74H483.982V470.138L450.96 426.383ZM413.039 380.74H446.062V424.489H413.039V380.74ZM492.348 380.746L561.253 380.74L572.576 395.742H503.667L492.348 380.746ZM-307.219 381.105H-272.756L-239.742 424.854H-303.758H-307.219L-307.219 381.105ZM499.353 490.5L498.619 489.527L488.88 476.625V446.189V385.322L500.204 400.336V491.627L499.353 490.5ZM228.92 388.021H263.382L263.391 388.034L296.4 431.776H232.383H228.92V388.021ZM765.052 394.95H799.514L832.527 438.7H768.52V438.695H765.052V394.95ZM6.88046 440.954V395.309H39.9048L39.9044 484.706L6.88046 440.954ZM-31.0398 395.309H1.98456V439.06H-31.0398V395.309ZM48.2651 395.315H117.178L128.502 410.317H59.5908L48.2651 395.315ZM55.2744 505.07L54.5346 504.092L44.8003 491.196L44.8008 399.89L50.4579 407.394L56.1254 414.905V506.198L55.2744 505.07ZM543.017 447.875V402.231H576.044V491.628L543.017 447.875ZM505.097 402.231H538.124V445.982H505.097V402.231ZM584.405 402.237L653.315 402.231L664.638 417.233H595.729L584.405 402.237ZM-215.159 402.596H-180.695L-147.679 446.348H-211.699V446.347H-215.159L-215.159 402.596ZM591.415 511.989L590.663 510.993L580.942 498.114V406.806L592.266 421.827V513.117L591.415 511.989ZM320.977 409.512H355.444L388.462 453.266H320.982L320.977 409.512ZM140.325 416.774H209.235L220.554 431.776H151.649L140.325 416.774ZM98.9421 462.446V416.799H131.965V506.198L98.9421 462.446ZM61.0199 416.799H94.0452V460.553H61.0199V416.799ZM136.858 512.656V421.356L148.181 436.369V527.657L136.858 512.656ZM676.462 423.696H745.372L756.696 438.697H687.786L676.462 423.696ZM635.079 469.365V423.715L668.101 423.721V513.116L635.079 469.365ZM597.159 423.715H630.186V467.471H597.159V423.715ZM-123.1 424.055H-88.6376L-55.6235 467.808H-119.64V467.807L-123.1 467.808L-123.1 424.055ZM672.999 519.579V428.272L684.323 443.287V534.58L672.999 519.579ZM413.039 430.978H447.501L480.519 474.728H416.498V474.726H413.039V430.978ZM-303.754 431.343H-234.844L-223.519 446.347H-292.429L-303.754 431.343ZM-307.219 527.228V435.921L-295.894 450.938V542.231L-307.219 527.228ZM190.999 483.906V438.262L224.022 438.262V527.657L190.999 483.906ZM153.079 438.262H186.102V482.013H153.079V438.262ZM232.387 438.265H301.293L312.616 453.266H243.711L232.387 438.265ZM228.92 534.145V442.845L240.243 457.859V549.147L228.92 534.145ZM727.136 490.826V445.181L760.164 445.181V534.58L727.136 490.826ZM689.216 445.181H722.243V488.934H689.216V445.181ZM768.524 445.186H837.434L848.758 460.187H779.848L768.524 445.186ZM-31.0398 445.547L3.42349 445.547L36.4376 489.297H-31.0393L-31.0398 445.547ZM775.53 554.941L774.796 553.966L765.057 541.067V449.761L776.385 464.777V556.069L775.53 554.941ZM505.097 452.465H539.563L572.576 496.219H508.56V496.216H505.097V452.465ZM-253.079 498.478V452.832H-220.053L-220.054 542.231L-253.079 498.478ZM-290.999 452.832H-257.974V496.584H-290.999V452.832ZM-211.694 452.836H-142.785L-131.46 467.839H-200.369L-211.694 452.836ZM-204.679 562.589L-215.159 548.718L-215.159 457.414L-203.834 472.43V563.709L-204.679 562.589ZM283.062 505.396V459.752H316.084V549.147L283.062 505.396ZM245.141 459.752H278.164V503.503H245.141V459.752ZM324.445 459.755H393.355L404.678 474.758H335.769L324.445 459.755ZM331.455 569.513L330.712 568.533L320.982 555.638V464.333L326.637 471.834L332.306 479.349V570.641L331.455 569.513ZM819.198 512.316V466.671L852.221 466.671V556.07L819.198 512.316ZM781.278 466.671H814.305V510.424H781.278V466.671ZM61.0199 467.036L95.4846 467.036L128.502 510.789H61.0204L61.0199 467.036ZM597.159 473.955H631.625L664.638 517.709H600.622V517.708H597.159V473.955ZM-119.635 474.296H-50.7253L-39.4006 489.3H-108.31L-119.635 474.296ZM-161.02 519.97V474.323L-127.995 474.324V563.723L-161.02 519.97ZM-198.94 474.323H-165.914V518.077H-198.94V474.323ZM-123.1 570.18V478.874L-111.776 493.89V585.183L-123.1 570.18ZM416.507 481.217H485.412L496.736 496.218H427.831L416.507 481.217ZM375.119 526.888V481.242L408.141 481.243V570.64L375.119 526.888ZM337.199 481.242H370.226V524.995H337.199V481.242ZM413.039 577.098V485.797L424.363 500.811V592.1L413.039 577.098ZM153.079 488.498L187.541 488.499L220.554 532.25H156.538V532.249H153.079V488.498ZM689.216 495.417L723.678 495.417L756.696 539.17H692.679V539.168L689.216 539.169V495.417ZM-68.9606 541.43V495.783L-35.9357 495.784L-35.9362 585.183L-68.9606 541.43ZM-106.881 495.783H-73.8551V539.536H-106.881V495.783ZM-27.5726 495.788H41.3335L52.6568 510.789H-16.2493L-27.5726 495.788ZM-20.561 605.541L-28.8615 594.554L-31.0398 591.669L-31.0393 500.369L-19.7161 515.382V606.661L-20.561 605.541ZM467.176 548.348V502.704L500.204 502.705V592.099L467.176 548.348ZM429.256 502.704H462.283V546.455H429.256V502.704ZM508.564 502.707H577.474L588.793 517.708H519.888L508.564 502.707ZM-290.999 503.068L-256.534 503.068L-223.519 546.821H-287.532V546.816H-290.998L-290.999 503.068ZM505.101 598.588V507.286L516.425 522.302V613.59L505.101 598.588ZM245.141 509.988H279.603L312.616 553.74H248.6V553.739L245.141 553.74V509.988ZM781.278 516.907H815.74L848.758 560.661H784.736V560.66L781.956 560.661H781.278V516.907ZM23.1001 562.919V517.276L56.124 517.276L56.1235 606.671L23.1001 562.919ZM-14.8202 517.276H18.2042V561.026H-14.8202V517.276ZM64.4848 517.278H133.395L144.718 532.282H75.8099L64.4848 517.278ZM71.5001 627.032L61.0199 613.159L61.0204 521.855L72.3451 536.873V628.151L71.5001 627.032ZM559.238 569.838V524.194L592.261 524.195V613.59L559.238 569.838ZM521.318 524.194H554.345V567.945H521.318V524.194ZM600.622 524.196H669.531L680.86 539.2H611.95L600.622 524.196ZM-198.94 524.559L-164.475 524.56L-131.461 568.312H-195.471V568.306H-198.94V524.559ZM607.632 633.955L606.893 632.976L597.159 620.08V528.774L602.818 536.276L608.482 543.791V635.083L607.632 633.955ZM337.199 531.479L371.665 531.479L404.678 575.232H340.662V575.232H337.199V531.479ZM156.542 538.738H225.452L236.78 553.741H167.871L156.542 538.738ZM115.159 584.411V538.765L148.186 538.766V628.164L115.159 584.411ZM77.2391 538.765H110.266V582.518H77.2391V538.765ZM153.079 634.622V543.316L164.403 558.332V649.625L153.079 634.622ZM692.684 545.659H761.589L772.913 560.661H704.007L692.684 545.659ZM651.3 591.331V545.684H684.323V635.081L651.3 591.331ZM613.38 545.684H646.403V589.437H613.38V545.684ZM-106.881 546.02H-72.4161L-39.4006 589.774H-103.414V589.768H-106.881L-106.881 546.02ZM689.216 641.54V550.239L700.54 565.253V656.541L689.216 641.54ZM429.256 552.941L463.723 552.941L496.736 596.692H429.256V552.941ZM-287.527 553.305H-218.618L-207.293 568.309H-276.202L-287.527 553.305ZM-290.993 649.188L-290.992 557.882L-279.668 572.899V664.192L-290.993 649.188ZM207.216 605.872V560.225L240.243 560.226V649.625L207.216 605.872ZM169.296 560.225H202.323V603.979H169.296V560.225ZM248.604 560.231H317.514L328.838 575.232H259.928L248.604 560.231ZM255.619 669.984L247.291 658.96L245.141 656.111V564.81L256.465 579.825V671.102L255.619 669.984ZM743.358 612.79V567.146H776.38V656.541L743.358 612.79ZM705.438 567.146H738.46V610.898H705.438V567.146ZM790.405 574.651L784.741 567.149H853.651L864.975 582.153H796.069L790.405 574.651ZM-14.8202 567.512H19.6427L52.6568 611.263H-11.3525V611.258H-14.8202V567.512ZM792.602 678.035L791.031 675.954L784.676 667.537L781.278 663.032V571.727L792.602 586.743V678.035ZM521.318 574.43L555.78 574.431L588.793 618.182H521.318V574.43ZM-236.853 620.438V574.792H-203.828V664.192L-236.853 620.438ZM-274.774 574.792H-241.747V618.545H-274.774V574.792ZM-195.465 574.798H-126.556L-115.232 589.798H-184.142L-195.465 574.798ZM-188.458 684.553L-189.211 683.557L-198.932 670.678L-198.931 579.373L-187.607 594.389V685.681L-188.458 684.553ZM299.278 627.361V581.717L332.306 581.718L332.301 671.113L299.278 627.361ZM261.358 581.717H294.385V625.469H261.358V581.717ZM340.666 581.72H409.572L420.9 596.724H351.99L340.666 581.72ZM348.317 692.319L347.681 691.474L337.199 677.602V586.298L348.522 601.315V692.593L348.317 692.319ZM835.415 634.283V588.636L868.442 588.637V678.036L835.415 634.283ZM797.495 588.636H830.522V632.389H797.495V588.636ZM77.2391 589.002H111.705L144.718 632.753H80.7077V632.748L77.2395 632.748L77.2391 589.002ZM613.38 595.92L647.842 595.921L680.86 639.674H613.38V595.92ZM-103.409 596.257H-34.5L-23.1749 611.26H-92.0847L-103.409 596.257ZM-144.792 641.928V596.281L-111.768 596.283V685.68L-144.792 641.928ZM-182.713 596.281H-149.687V640.035H-182.713V596.281ZM-106.872 692.143V600.837L-95.5496 615.851V707.143L-106.872 692.143ZM432.724 603.181H501.634L512.957 618.184H444.047L432.724 603.181ZM391.34 648.854V603.208H424.363V692.607L391.34 648.854ZM353.42 603.208H386.443V646.961H353.42V603.208ZM429.256 699.064V626.98L429.261 607.758L440.584 622.775V714.067L429.256 699.064ZM169.296 610.462L203.763 610.462L236.78 654.215H172.764V654.21L169.301 654.21L169.296 610.462ZM705.438 617.382L739.899 617.382L772.913 661.134H708.901V661.134H705.438V617.382ZM-52.7353 663.39V617.744H-19.7095V707.143L-52.7353 663.39ZM-90.6552 617.744H-57.6294V661.498H-90.6552V617.744ZM-11.3464 617.75H57.5625L68.8862 632.75H-0.0236206L-11.3464 617.75ZM-4.34003 727.505L-5.07373 726.532L-14.8136 713.63V683.195L-14.8132 622.324L-3.48895 637.341V728.633L-4.34003 727.505ZM483.398 670.313V624.667L516.425 624.668V714.067L483.398 670.313ZM445.478 624.667H478.505V668.42H445.478V624.667ZM524.786 624.673H593.691L605.015 639.674H536.11L524.786 624.673ZM-274.774 625.028L-240.309 625.029L-207.293 668.782H-271.311V668.779L-274.773 668.78L-274.774 625.028ZM531.796 734.426L523.496 723.439L521.318 720.553V629.252L532.642 644.267V735.545L531.796 734.426ZM261.358 631.953L295.825 631.954L328.838 675.705H264.826V675.7H261.358V631.953ZM797.495 638.873H831.962L864.975 682.627H800.958V682.626H797.495V638.873ZM39.3258 684.88V639.234H72.3516L72.3511 728.633L39.3258 684.88ZM1.40552 639.234H34.4313V682.988H1.40552V639.234ZM80.7147 639.239L149.625 639.239L160.945 654.241H92.0375L80.7147 639.239ZM87.7216 748.995L86.9682 747.998L77.247 735.119L77.2475 643.814L88.5726 658.831V750.123L87.7216 748.995ZM575.46 691.803V646.16L608.482 646.16V735.555L575.46 691.803ZM537.54 646.16H570.562V689.911H537.54V646.16ZM616.843 646.163H685.753L697.077 661.166H628.167L616.843 646.163ZM-182.713 646.519L-148.248 646.519L-115.232 690.272H-179.251V690.271L-182.713 690.272V646.519ZM623.858 755.915L613.38 742.045V650.741L624.704 665.756V757.035L623.858 755.915ZM353.42 653.444L387.882 653.445L420.895 697.196H356.888V697.19H353.42V653.444ZM172.768 660.7L241.678 660.699L253.002 675.703H184.097L172.768 660.7ZM131.385 706.37V660.724H164.412V750.121L131.385 706.37ZM93.4671 660.724H126.492V704.477H93.4671V660.724ZM169.305 756.584V665.279L180.629 680.293V771.585L169.305 756.584ZM708.901 667.622H777.81L789.139 682.626H720.224L708.901 667.622ZM667.517 713.296V667.649L700.544 667.65V757.049L667.517 713.296ZM629.597 667.649H662.624V711.402H629.597V667.649ZM-90.6552 667.98L-56.1909 667.981L-23.1749 711.734H-87.1931V711.731H-90.6547L-90.6552 667.98ZM705.438 763.505V672.2L716.761 687.217V778.509L705.438 763.505ZM445.478 674.904L479.944 674.905L512.957 718.658H448.945V718.652H445.478V674.904ZM-271.307 675.268H-202.397L-191.072 690.272H-259.982L-271.307 675.268ZM-274.772 771.151L-274.771 679.846L-263.447 694.862V786.155L-274.772 771.151ZM223.443 727.832V682.186L256.47 682.187V771.585L223.443 727.832ZM185.522 682.186H218.549V725.939H185.522V682.186ZM264.835 682.192L333.74 682.191L345.064 697.193H276.154L264.835 682.192ZM271.841 791.947L271.102 790.972L261.367 778.072V686.767L270.429 698.782L272.691 701.783V793.074L271.841 791.947ZM759.575 734.756V689.11H792.602V778.509L759.575 734.756ZM721.654 689.11H754.682V732.863H721.654V689.11ZM800.963 689.115H869.873L881.196 704.118H812.286L800.963 689.115ZM1.40552 689.471H35.8703L68.8862 733.224H4.86807V733.221H1.40601L1.40552 689.471ZM807.977 798.868L797.495 784.996V693.693L808.823 708.709V799.987L807.977 798.868ZM537.54 696.396L572.002 696.397L605.015 740.147H541.007V740.142L537.54 740.143V696.396ZM-220.632 742.401V696.755L-187.607 696.756L-187.607 786.155L-220.632 742.401ZM-258.553 696.755H-225.527V740.508H-258.553V696.755ZM-179.247 696.76H-110.338L-99.0127 711.764H-167.922L-179.247 696.76ZM-182.713 792.643L-182.712 701.338L-171.387 716.354V807.647L-182.713 792.643ZM315.505 749.322V703.676L348.532 703.676V793.076L315.505 749.322ZM277.584 703.676H310.611V747.429H277.584V703.676ZM356.893 703.681H425.802L437.126 718.682H368.216L356.893 703.681ZM364.753 814.565L363.146 812.44L353.425 799.562V708.257L364.753 723.273V814.565ZM851.637 756.248V710.602H884.659V800.001L851.637 756.248ZM813.716 710.602H846.739V754.355H813.716V710.602ZM93.4671 710.961H127.931L160.945 754.714H96.9278V754.714H93.4671V710.961ZM629.597 717.886L664.064 717.887L697.077 761.637H633.065V761.632L629.597 761.632V717.886ZM-87.1884 718.221H-18.279L-6.9534 733.224H-75.8637L-87.1884 718.221ZM-128.573 763.894V718.248L-95.5473 718.248L-95.5478 807.647L-128.573 763.894ZM-166.493 718.248H-133.468V762H-166.493V718.248ZM-90.6533 814.104V722.798L-79.3286 737.815V829.107L-90.6533 814.104ZM448.95 725.142L517.86 725.141L529.184 740.144H460.274L448.95 725.142ZM407.567 770.812V725.166H440.589V814.564L407.567 770.812ZM369.646 725.166H402.674V768.92H369.646V725.166ZM445.487 821.026V729.721L456.811 744.735V836.027L445.487 821.026ZM185.522 732.422H219.989L253.002 776.176H188.985V776.174L185.527 776.174L185.522 732.422ZM721.654 739.346L756.121 739.346L789.139 783.099H725.122V783.094H721.654V739.346ZM-36.5138 785.353V739.707L-3.48849 739.708L-3.48895 829.107L-36.5138 785.353ZM-74.4346 739.707H-41.4088V783.461H-74.4346V739.707ZM4.87415 739.713H73.7802L85.104 754.714H16.1979L4.87415 739.713ZM1.40738 835.593L1.40784 744.292L12.7311 759.306V850.595L1.40738 835.593ZM499.624 792.274V746.629H532.651L532.647 836.027L499.624 792.274ZM461.704 746.629H494.731V790.382H461.704V746.629ZM541.012 746.634L609.922 746.633L621.246 761.635H552.336L541.012 746.634ZM-258.553 746.992H-224.088L-191.072 790.746H-258.552L-258.553 746.992ZM548.018 856.389L547.284 855.417L537.544 842.514V812.078V751.208L548.868 766.225V857.517L548.018 856.389ZM277.584 753.913L312.051 753.914L323.061 768.503L345.064 797.666H281.047V797.663H277.584V753.913ZM813.716 760.838L848.178 760.839L881.196 804.59H817.184V804.584H813.716V760.838ZM55.5464 806.844V761.2L88.5712 761.2L88.5708 850.594L55.5464 806.844ZM17.6266 761.2H50.651V804.951H17.6266V761.2ZM96.9315 761.202H165.842L177.166 776.206H108.256L96.9315 761.202ZM93.4671 857.086L93.4676 765.78L104.793 780.797V872.089L93.4671 857.086ZM591.686 813.764V768.118H624.709V857.517L591.686 813.764ZM553.766 768.118H586.788V811.871H553.766V768.118ZM633.074 768.123H701.984L713.308 783.125H644.398L633.074 768.123ZM-166.493 768.484H-132.029L-99.0127 812.238H-166.493L-166.493 768.484ZM640.079 877.879L639.327 876.883L629.606 864.004V772.698L640.93 787.715V879.007L640.079 877.879ZM369.646 775.402L404.108 775.403L437.126 819.156H369.646V775.402ZM188.99 782.662H257.9L269.224 797.666H200.314L188.99 782.662ZM147.607 828.336V782.689L180.634 782.689V872.089L147.607 828.336ZM109.686 782.689H142.714V826.443H109.686V782.689ZM185.527 878.546V787.24L196.851 802.256V893.549L185.527 878.546ZM725.127 789.583H794.037L805.36 804.587H736.455L725.127 789.583ZM683.744 835.254V789.608L716.771 789.609V879.006L683.744 835.254ZM645.823 789.608H678.85V833.361H645.823V789.608ZM-74.4346 789.944H-39.9703L-6.9534 833.698H-74.4336L-74.4346 789.944ZM721.664 885.469V794.163L732.987 809.177V900.47L721.664 885.469ZM461.704 796.865H496.166L529.184 840.618H465.167V840.615H461.704V796.865ZM239.664 849.796V804.15L272.691 804.15V893.549L239.664 849.796ZM201.744 804.15H234.771V847.903H201.744V804.15ZM281.052 804.154H349.962L361.286 819.156H292.376L281.052 804.154ZM277.589 900.035V808.734L288.908 823.749V915.036L277.589 900.035ZM775.801 856.717V811.07L808.828 811.07V900.47L775.801 856.717ZM737.88 811.07H770.908V854.823H737.88V811.07ZM817.189 811.075H886.099L897.422 826.077H828.513L817.189 811.075ZM17.6266 811.436H52.0894L85.104 855.187H17.627L17.6266 811.436ZM824.199 920.831L823.461 919.856L813.726 906.957V815.651L825.05 830.667V921.958L824.199 920.831ZM553.766 818.355H588.228L621.246 862.108H557.224V862.106H553.766V818.355ZM331.726 871.285V825.642H364.749V915.036L331.726 871.285ZM293.806 825.642H326.828V869.392H293.806V825.642ZM373.109 825.645H442.019L453.348 840.648H384.438L373.109 825.645ZM369.646 921.527V830.222L380.97 845.238V936.531L369.646 921.527ZM867.863 878.206V832.56L900.89 832.561V921.96L867.863 878.206ZM829.943 832.56H862.97V876.314H829.943V832.56ZM109.686 832.926L144.153 832.926L177.166 876.679H109.686V832.926ZM645.823 839.844H680.29L713.308 883.598H645.823V839.844ZM465.171 847.104H534.081L545.405 862.108H476.495L465.171 847.104ZM423.783 892.778V847.132L456.811 847.132V936.531L423.783 892.778ZM385.863 847.132H418.89V890.885H385.863V847.132ZM461.704 942.988V851.682L473.032 866.699V957.991L461.704 942.988ZM201.744 854.386H236.21L269.224 898.14H201.744V854.386ZM737.88 861.306L772.347 861.308L805.36 905.06H741.344V905.057L737.88 905.058V861.306ZM515.846 914.238V868.591L548.868 868.592V957.991L515.846 914.238ZM477.925 868.591H510.952V912.345H477.925V868.591ZM557.234 868.597H626.139L637.462 883.598H568.557L557.234 868.597ZM553.766 964.477V873.176L565.09 888.191V979.479L553.766 964.477ZM293.806 875.878L328.268 875.879L361.286 919.629H293.806V875.878ZM829.943 882.796L864.409 882.797L897.422 926.55H833.406V926.549L829.943 926.55V882.796ZM607.903 935.728V890.084H640.93V979.479L607.903 935.728ZM569.987 890.084H603.01V933.835H569.987V890.084ZM649.291 890.087H718.201L729.524 905.09H660.615L649.291 890.087ZM645.823 985.97V894.665L657.151 909.681V1000.97L645.823 985.97ZM385.863 897.368L420.33 897.369L453.348 941.122H385.868L385.863 897.368ZM741.348 911.547H810.258L821.582 926.55H752.672L741.348 911.547ZM699.965 957.22V911.574H732.992L732.987 1000.97L699.965 957.22ZM662.045 911.574H695.072V955.327H662.045V911.574ZM737.885 1007.43V916.124L749.209 931.14V1022.43L737.885 1007.43ZM477.925 918.827L512.387 918.829L545.405 962.581H477.925V918.827ZM792.022 978.679V933.034L825.05 933.034V1022.43L792.022 978.679ZM754.102 933.034H787.129V976.787H754.102V933.034ZM833.41 933.039H902.32L913.644 948.042H844.734L833.41 933.039ZM829.943 1028.92V937.616L841.266 952.633V1043.92L829.943 1028.92ZM569.987 940.32L604.449 940.32L637.462 984.072H569.987V940.32ZM884.084 1000.17V954.526L917.107 954.527V1043.92L884.084 1000.17ZM846.164 954.526H879.187V998.279H846.164V954.526ZM662.045 961.81H696.507L729.524 1005.56H662.045V961.81ZM754.102 983.27H788.569L821.582 1027.02H754.102V983.27ZM846.164 1004.76H880.626L913.644 1048.52H846.164V1004.76Z" fill="#0F2121"/>
</g>
</svg>
