<svg width="934" height="212" viewBox="0 0 934 212" fill="none" xmlns="http://www.w3.org/2000/svg">
<mask id="mask0" mask-type="alpha" maskUnits="userSpaceOnUse" x="0" y="0" width="934" height="212">
<rect x="0.5" width="933.5" height="212" fill="#40FFFF"/>
</mask>
<g mask="url(#mask0)">
<path d="M-365.208 -55.8838H-373.496V37.3042L-357.404 56.3669V58.0529L-357.404 145.491L-341.307 164.559V166.24L-341.308 253.672L-325.217 272.735V361.859L-309.126 380.921V470.046L-293.029 489.114V490.792L-293.029 578.229L-276.938 597.291L-276.937 598.977L-276.938 686.413L-259.42 707.165L-184.188 707.164L-168.094 726.229L-92.8392 726.229L-76.7693 745.265L-1.53732 745.264L14.5567 764.329L89.7914 764.328L105.885 783.391L181.14 783.39L197.209 802.427L272.44 802.426L288.537 821.49H363.768L379.861 840.553L455.115 840.553L471.189 859.589H546.42L562.513 878.653L637.749 878.652L653.841 897.715H729.096L745.165 916.751L820.396 916.75L836.488 935.815L915.151 935.814V842.62L909.453 835.867L899.063 823.57V734.433L893.36 727.681L882.966 715.373V626.252L877.264 619.5L866.874 607.202V518.065L861.176 511.312L850.786 499.015V409.878L845.084 403.126L834.685 390.819V301.699L828.987 294.944L818.597 282.648V193.507L812.895 186.758L801.077 172.77H730.704V172.764L725.85 172.77L721.571 167.695L709.753 153.707H639.376V153.701L634.503 153.707L630.247 148.66L618.43 134.672H548.052V134.666H543.198L538.919 129.597L527.102 115.609H456.724V115.603H451.87L447.591 110.534L435.773 96.5462H365.4V96.5407H360.528L356.267 91.4936L344.449 77.511H274.077V77.5056H269.223L264.943 72.4365L264.939 72.431L264.93 72.42L253.121 58.4483H182.748V58.4428H177.894L173.615 53.3737L161.793 39.3857H91.4206V39.3802H86.5493L82.2901 34.3331L70.472 20.3504H0.0973816V20.3449H-4.75717L-9.03729 15.2703L-20.8554 1.28776H-91.2305V1.28226H-96.0846L-100.364 -3.79232L-112.183 -17.7804H-182.557H-187.429L-191.688 -22.8276L-203.506 -36.8156H-273.881V-36.8211H-278.735L-283.015 -41.8902L-294.833 -55.8783H-365.208V-55.8838ZM-365.204 -50.1282H-296.843L-285.608 -36.8156H-353.969L-365.204 -50.1282ZM-368.641 34.9262V-46.0641L-357.406 -32.7461V48.2332L-368.641 34.9262ZM-314.933 9.42136V-31.0655H-282.171L-282.171 48.2332L-314.933 9.42136ZM-352.551 -31.0655H-319.788V7.74084H-352.551V-31.0655ZM-273.876 -31.0655H-205.516L-194.281 -17.753H-262.642L-273.876 -31.0655ZM-266.924 66.2964L-267.657 65.4287L-277.314 53.9888L-277.314 -27.0015L-266.079 -13.6834V67.2959L-266.924 66.2964ZM-182.553 -12.0248H-114.192L-102.958 1.28226H-171.318L-182.553 -12.0248ZM-223.606 28.4841V-12.0028H-190.845L-190.846 67.2959L-223.606 28.4841ZM-261.224 -12.0028H-228.461V26.809H-261.224V-12.0028ZM-185.989 73.0241V-7.96622L-174.756 5.35184V86.3311L-185.989 73.0241ZM-132.282 47.5247V7.03236H-99.52L-99.5204 86.3311L-132.282 47.5247ZM-169.9 7.03236H-137.138V45.8442H-169.9V7.03236ZM-91.2258 7.03785H-22.8652L-19.1201 11.4699L-11.6303 20.3449H-79.991L-91.2258 7.03785ZM-84.2725 104.394L-84.967 103.57L-94.6631 92.0867V11.0964L-83.4282 24.4145V105.394L-84.2725 104.394ZM-352.551 13.4964H-318.361L-285.608 52.3028H-349.116H-352.55L-352.551 13.4964ZM-40.9547 66.5875V26.0951H-8.19211L-8.19305 105.394L-40.9547 66.5875ZM-78.5727 26.0951H-45.8106V64.9069H-78.5727V26.0951ZM0.101562 26.1006H68.4622L79.6966 39.4076H11.336L0.101562 26.1006ZM7.05444 123.457L6.32053 122.589L-3.33572 111.149V30.1591L7.89868 43.4772V124.457L7.05444 123.457ZM-261.224 32.5591H-227.034L-194.281 71.3655H-261.223L-261.224 32.5591ZM91.4248 45.1357H159.785L171.019 58.4428H102.658L91.4248 45.1357ZM50.3718 85.6446V45.1577H83.1334L83.1329 124.457L50.3718 85.6446ZM12.7542 45.1577H45.5168V83.9696H12.7542V45.1577ZM87.9898 130.19V49.1998L99.2228 62.5179V143.497L87.9898 130.19ZM-169.9 51.5943H-135.71L-102.958 90.4062H-166.466V90.4007H-169.9V51.5943ZM-349.112 58.0584H-280.752L-269.517 71.3655H-337.877L-349.112 58.0584ZM-352.549 143.113V62.117L-341.314 75.4406V156.42L-352.549 143.113ZM141.695 104.685V64.193H174.459V143.497L141.695 104.685ZM104.077 64.193H136.841V103.005H104.077V64.193ZM182.753 64.1985H251.114L262.347 77.5056H193.987L182.753 64.1985ZM189.703 161.555L188.956 160.665L179.318 149.247V68.257L190.551 81.5806V162.554L189.703 161.555ZM-78.5727 70.657H-44.3831L-11.6303 109.469H-75.1382V109.463H-78.5727V70.657ZM-298.841 117.608V77.1156L-266.079 77.1211L-266.079 156.42L-298.841 117.608ZM-336.459 77.1156H-303.697V115.927H-336.459V77.1156ZM-257.786 77.1211H-189.426L-178.191 90.4336H-246.552L-257.786 77.1211ZM-250.827 174.477L-261.224 162.175L-261.223 81.1852L-249.988 94.5032V175.472L-250.827 174.477ZM233.023 123.748V83.2556H265.787V162.554L233.023 123.748ZM195.405 83.2556H228.169V122.068H195.405V83.2556ZM274.081 83.2611H342.442L353.676 96.5682H285.315L274.081 83.2611ZM281.031 180.618L280.299 179.75L270.641 168.31V87.3197L281.875 100.643V181.617L281.031 180.618ZM12.7542 89.7197H46.9442L79.6966 128.532H16.1873H12.7546L12.7542 89.7197ZM-166.461 96.1563H-98.1009L-86.866 109.469H-155.226L-166.461 96.1563ZM-207.515 136.671V96.1838H-174.753V175.483L-207.515 136.671ZM-245.133 96.1838H-212.371V134.996H-245.133V96.1838ZM-169.898 181.211V100.22L-158.664 113.538V194.518L-169.898 181.211ZM365.405 102.296H433.766L444.999 115.609H376.639L365.405 102.296ZM324.352 142.811V102.318H357.111V181.617L324.352 142.811ZM286.734 102.318H319.493V141.13H286.734V102.318ZM361.97 187.351V106.36L373.198 119.678V200.658L361.97 187.351ZM104.077 108.755H138.269L171.019 147.567H107.512H104.077V108.755ZM-116.191 155.706V115.219H-83.4282L-83.4287 194.518L-116.191 155.706ZM-153.809 115.219H-121.046V154.031H-153.809V115.219ZM-75.1322 115.224H-6.77484L4.45819 128.532H-63.8992L-75.1322 115.224ZM-68.1765 212.575L-76.4109 202.833L-78.5714 200.273L-78.5709 119.283L-67.3383 132.601V213.569L-68.1765 212.575ZM415.675 161.846V121.359H448.435V200.658L415.675 161.846ZM378.057 121.359H410.817V160.165H378.057V121.359ZM456.729 121.359H525.089L528.835 125.797L536.328 134.666H467.967L456.729 121.359ZM-336.459 121.678L-302.27 121.683L-269.517 160.489H-333.019V160.484H-336.459L-336.459 121.678ZM463.683 218.721L462.988 217.897L453.293 206.413V125.423L464.527 138.741V219.72L463.683 218.721ZM195.405 127.818H229.593L262.338 166.618L262.347 166.629H198.841H195.405V127.818ZM-24.8634 174.769V134.282H7.89731V213.58L-24.8634 174.769ZM-62.481 134.282H-29.7198V173.094H-62.481V134.282ZM16.1919 134.287H84.5521L95.787 147.594H27.4263L16.1919 134.287ZM23.1513 231.638L12.7542 219.336L12.7546 138.346L23.989 151.664V232.632L23.1513 231.638ZM506.999 180.909V140.422H539.763V219.72L506.999 180.909ZM469.381 140.422H502.145V179.228H469.381V140.422ZM548.057 140.422H616.418L627.651 153.729H559.291L548.057 140.422ZM-245.133 140.746H-210.944L-178.192 179.552H-241.693V179.547H-245.133V140.746ZM555.011 237.784L544.622 225.476V144.48L555.855 157.804V238.783L555.011 237.784ZM286.734 146.88H320.921L353.676 185.692H290.164H286.734V146.88ZM107.517 153.322H175.878L187.111 166.629H118.75L107.517 153.322ZM66.4626 193.837V153.344H99.2228V232.643L66.4626 193.837ZM28.8441 153.344H61.6067V192.156H28.8441V153.344ZM104.082 238.371V157.381L115.315 170.705V251.678L104.082 238.371ZM639.381 159.457H707.741L718.975 172.77H650.614L639.381 159.457ZM598.327 199.971V159.484H631.087V238.778L598.327 199.971ZM560.709 159.484H593.473V198.291H560.709V159.484ZM-153.809 159.781H-119.619L-86.866 198.593H-150.368V198.587H-153.808L-153.809 159.781ZM635.945 244.511V163.521L647.179 176.839V257.818L635.945 244.511ZM378.057 165.916L412.245 165.921L444.999 204.727H381.493H378.057V165.916ZM-333.015 166.24H-264.655L-253.42 179.552H-321.781L-333.015 166.24ZM-336.452 251.294L-336.452 170.304L-325.219 183.622V264.601L-336.452 251.294ZM157.787 212.872V172.38H190.551V251.678L157.787 212.872ZM120.169 172.38H152.933V211.191H120.169V172.38ZM198.845 172.385H267.201L278.435 185.692H210.079L198.845 172.385ZM205.8 269.741L197.533 259.949L195.405 257.434V176.449L206.639 189.767V270.73L205.8 269.741ZM689.651 219.007V178.52H722.415V257.818L689.651 219.007ZM652.033 178.52H684.797V217.331H652.033V178.52ZM730.709 178.52H799.07L810.303 191.832H741.943L730.709 178.52ZM-62.481 178.844H-28.2928L4.45819 217.655H-59.0418V217.65H-62.481V178.844ZM737.663 275.882L736.912 274.992L727.269 263.574V182.584L738.507 195.902V276.881L737.663 275.882ZM469.381 184.984H503.573L536.328 223.79H472.816H469.381V184.984ZM-282.745 225.789V185.302H-249.982V264.601L-282.745 225.789ZM-320.363 185.302H-287.6V224.114H-320.363V185.302ZM-241.686 185.308H-173.326L-162.093 198.615H-230.453L-241.686 185.308ZM-234.735 282.664L-235.482 281.78L-245.126 270.357L-245.126 189.366L-233.891 202.684V283.664L-234.735 282.664ZM249.116 231.935V191.442H281.875V270.741L249.116 231.935ZM211.497 191.442H244.257V230.254H211.497V191.442ZM290.169 191.448H358.53L369.763 204.755H301.402L290.169 191.448ZM297.128 288.799L286.734 276.497V195.506L297.967 208.83V289.793L297.128 288.799ZM780.979 238.069V197.582H813.743V276.881L780.979 238.069ZM743.361 197.582H776.125V236.389H743.361V197.582ZM28.8441 197.906H63.0341L95.7851 236.713H32.2855H28.8445L28.8441 197.906ZM560.709 204.041L594.901 204.046L627.651 242.853H560.709V204.041ZM-150.364 204.343H-82.0044L-70.7691 217.65H-139.13L-150.364 204.343ZM-191.418 244.852V204.365H-158.657V283.664L-191.418 244.852ZM-229.035 204.365H-196.273V243.177H-229.035V204.365ZM-153.8 289.397V208.401L-142.567 221.72V302.699L-153.8 289.397ZM381.493 210.483H449.858L461.091 223.79H392.731L381.493 210.483ZM340.439 250.997V210.505H373.203V289.809L340.439 250.997ZM302.821 210.505H335.585V249.317H302.821V210.505ZM378.057 295.532V231.594V214.542L389.291 227.865V308.844L378.057 295.532ZM120.169 216.942H154.361L187.111 255.753H123.609V255.748H120.169V216.942ZM652.033 223.082H686.225L718.975 261.893H655.468V261.888H652.033V223.082ZM-100.094 263.893V223.4H-67.3314L-67.3318 302.699L-100.094 263.893ZM-137.712 223.4H-104.949V262.212H-137.712V223.4ZM-59.0349 223.406H9.32434L20.5578 236.713H-47.8023L-59.0349 223.406ZM-52.0844 320.762L-52.8127 319.9L-62.475 308.455V281.456L-62.4745 227.464L-51.2405 240.782V321.762L-52.0844 320.762ZM431.768 270.033V229.54H464.527V308.844L431.768 270.033ZM394.149 229.54H426.909V268.352H394.149V229.54ZM472.826 229.546H541.182L552.415 242.853H484.059L472.826 229.546ZM-320.363 229.864H-286.173L-253.42 268.676H-316.928V268.671H-320.363V229.864ZM479.78 326.902L471.546 317.154L469.386 314.595V233.61L480.619 246.928V327.896L479.78 326.902ZM211.497 236.004H245.685L278.435 274.816H214.938V274.811H211.497V236.004ZM743.361 242.144H777.553L810.303 280.956H746.792H743.361V242.144ZM-8.767 282.955V242.463H23.9955L23.9951 321.762L-8.767 282.955ZM-46.3851 242.463H-13.6225V281.275H-46.3851V242.463ZM32.2916 242.468H100.651L111.884 255.775H43.5246L32.2916 242.468ZM39.2426 339.825L38.4957 338.94L28.852 327.517L28.8524 246.527L40.0873 259.845V340.824L39.2426 339.825ZM523.091 289.095V248.608H555.855L555.851 327.902L523.091 289.095ZM485.473 248.608H518.237V287.415H485.473V248.608ZM564.149 248.608H632.51L643.743 261.915H575.383L564.149 248.608ZM-229.035 248.927H-194.846L-162.093 287.733H-225.602H-228.533H-229.035V248.927ZM571.108 345.965L560.709 333.657V252.672L571.943 265.99V346.959L571.108 345.965ZM302.821 255.067H337.013L369.763 293.879H306.266V293.873H302.821V255.067ZM123.614 261.503H191.974L203.208 274.811H134.847L123.614 261.503ZM82.5604 302.012V261.525H115.32V340.824L82.5604 302.012ZM44.9423 261.525H77.7049V300.337H44.9423V261.525ZM120.178 346.558V265.568L131.412 278.886V359.865L120.178 346.558ZM655.473 267.644H723.833L735.067 280.956H666.706L655.473 267.644ZM614.419 308.158V267.671H647.179V346.97L614.419 308.158ZM576.801 267.671H609.565V306.477H576.801V267.671ZM-137.712 267.962H-103.522L-70.7691 306.774H-134.277H-137.712L-137.712 267.962ZM652.037 352.698V271.708L663.271 285.026V366.005L652.037 352.698ZM394.149 274.102H428.337L461.091 312.914H397.585V312.909H394.149V274.102ZM-316.922 274.426H-248.565L-237.332 287.733H-305.689L-316.922 274.426ZM-320.361 359.48L-320.361 278.49L-309.128 291.808V372.782L-320.361 359.48ZM173.884 321.053V280.561L206.648 280.566L206.643 359.865L173.884 321.053ZM136.266 280.561H169.03V319.373H136.266V280.561ZM214.942 280.566H283.303L294.536 293.873H226.176L214.942 280.566ZM221.892 377.923L221.164 377.06L211.502 365.615V284.625L222.736 297.948V378.922L221.892 377.923ZM705.743 327.193V286.706H738.507V366.005L705.743 327.193ZM668.125 286.706H700.889V325.513H668.125V286.706ZM746.797 286.712H815.157L826.395 300.019H758.035L746.797 286.712ZM-46.3851 287.025H-12.1945L20.5578 325.837H-42.9496V325.831H-46.3841L-46.3851 287.025ZM753.755 384.063L743.361 371.761V290.77L754.595 304.088V385.057L753.755 384.063ZM485.473 293.17H519.665L552.415 331.977H488.913V331.971H485.473V293.17ZM-266.653 333.976V293.489H-233.892L-233.893 372.782L-266.653 333.976ZM-304.271 293.489H-271.51V332.295H-304.271V293.489ZM-225.598 293.489H-157.237L-146.003 306.801H-214.363L-225.598 293.489ZM-218.645 390.85L-219.379 389.981L-229.035 378.543L-229.035 297.553L-223.423 304.204L-217.801 310.871V391.85L-218.645 390.85ZM265.212 340.116V299.623H297.972V378.928L265.212 340.116ZM227.594 299.623H260.354V338.435H227.594V299.623ZM306.27 299.629H374.631L385.865 312.936H317.504L306.27 299.629ZM313.22 396.986L312.474 396.103L302.83 384.678V303.687L314.064 317.011V397.987L313.22 396.986ZM797.067 346.256V305.769H829.831V385.068L797.067 346.256ZM759.453 305.769H792.213V344.581H759.453V305.769ZM44.9423 306.087H79.1319L111.884 344.899H48.3754H44.9423V306.087ZM576.801 312.233H610.989L643.739 351.039H580.241V351.034H576.801V312.233ZM-134.271 312.53H-65.9141L-54.6811 325.837H-123.038L-134.271 312.53ZM-175.328 353.038V312.552H-142.566L-142.567 391.849L-175.328 353.038ZM-212.945 312.552H-180.182V351.363H-212.945V312.552ZM-137.71 397.578V316.588L-126.477 329.912V410.884L-137.71 397.578ZM397.594 318.664H465.95L477.188 331.971H408.828L397.594 318.664ZM356.541 359.178V318.686H389.3V397.986L356.541 359.178ZM318.918 318.686H351.682V357.498H318.918V318.686ZM394.154 403.719V322.728L405.388 336.046V417.026L394.154 403.719ZM136.266 325.123H170.453L203.208 363.934H139.701H136.266V325.123ZM668.125 331.263L702.317 331.268L735.067 370.075H671.565H668.125V331.263ZM-84.0026 372.074V331.587H-51.2415L-51.2419 410.884L-84.0026 372.074ZM-121.62 331.587H-88.8591V370.399H-121.62V331.587ZM-42.9441 331.592H25.4133L36.6463 344.899H-31.7106L-42.9441 331.592ZM-46.3832 416.64L-46.3828 335.651L-35.1502 348.969V429.947L-46.3832 416.64ZM447.864 378.214V337.727H480.624V417.026L447.864 378.214ZM410.246 337.727H443.006V376.533H410.246V337.727ZM488.922 337.732L557.278 337.727L568.512 351.034H500.151L488.922 337.732ZM-304.271 338.051H-270.083L-237.332 376.857H-300.838H-304.271L-304.271 338.051ZM495.872 435.086L495.144 434.224L485.482 422.779V395.782V341.791L496.716 355.109V436.087L495.872 435.086ZM227.594 344.185H261.782L261.791 344.196L294.536 382.997H231.03H227.594V344.185ZM759.453 350.331H793.641L826.391 389.139H762.893V389.134H759.453V350.331ZM7.32474 391.138V350.649H40.0859L40.0854 429.947L7.32474 391.138ZM-30.2933 350.649H2.46786V389.459H-30.2933V350.649ZM48.3796 350.655H116.743L127.977 363.962H59.6149L48.3796 350.655ZM55.3329 448.011L54.5991 447.143L44.9423 435.704L44.9428 354.714L50.5549 361.37L56.1772 368.032V449.012L55.3329 448.011ZM539.188 397.277V356.789H571.952V436.087L539.188 397.277ZM501.57 356.789H534.334V395.598H501.57V356.789ZM580.246 356.795L648.607 356.789L659.84 370.097H591.48L580.246 356.795ZM-212.945 357.113H-178.755L-146.003 395.923H-209.512V395.922H-212.945L-212.945 357.113ZM587.2 454.149L586.454 453.265L576.811 441.841V360.848L588.044 374.172V455.149L587.2 454.149ZM318.918 363.248H353.11L385.865 402.059H318.923L318.918 363.248ZM139.706 369.69H208.067L219.296 382.997H150.94L139.706 369.69ZM98.6526 410.202V369.712H131.412V449.011L98.6526 410.202ZM61.0327 369.712H93.7948V408.523H61.0327V369.712ZM136.266 454.74V373.754L147.5 387.071V468.046L136.266 454.74ZM671.57 375.83H739.93L751.164 389.136H682.803L671.57 375.83ZM630.516 416.34V375.847L663.276 375.852V455.148L630.516 416.34ZM592.898 375.847H625.662V414.66H592.898V375.847ZM-121.62 376.149H-87.432L-54.6811 414.958H-118.187V414.958L-121.62 414.958L-121.62 376.149ZM668.134 460.881V379.889L679.368 393.208V474.187L668.134 460.881ZM410.246 382.289H444.434L477.188 421.097H413.677V421.095H410.246V382.289ZM-300.834 382.613H-232.473L-221.239 395.922H-289.599L-300.834 382.613ZM-304.271 467.666V386.674L-293.036 399.994V480.974L-304.271 467.666ZM189.976 429.238V388.75L222.736 388.751V468.046L189.976 429.238ZM152.358 388.75H185.118V427.559H152.358V388.75ZM231.034 388.753H299.39L310.624 402.059H242.268L231.034 388.753ZM227.594 473.802V392.815L238.828 406.133V487.109L227.594 473.802ZM721.84 435.376V394.887L754.604 394.888V474.187L721.84 435.376ZM684.222 394.887H716.986V433.698H684.222V394.887ZM762.898 394.892H831.259L842.492 408.198H774.132L762.898 394.892ZM-30.2933 395.212L3.89532 395.212L36.6463 434.02H-30.2928L-30.2933 395.212ZM769.848 492.248L769.12 491.383L759.458 479.941V398.95L770.696 412.27V493.249L769.848 492.248ZM501.57 401.349H535.762L568.512 440.159H505.005V440.157H501.57V401.349ZM-250.563 442.163V401.674H-217.8L-217.801 480.974L-250.563 442.163ZM-288.18 401.674H-255.418V440.484H-288.18V401.674ZM-209.508 401.678H-141.147L-129.913 414.986H-198.273L-209.508 401.678ZM-202.549 499.032L-212.945 486.728L-212.945 405.738L-201.71 419.059V500.025L-202.549 499.032ZM281.305 448.3V407.813H314.064V487.109L281.305 448.3ZM243.687 407.813H276.446V446.621H243.687V407.813ZM322.358 407.815H390.719L401.952 421.124H333.592L322.358 407.815ZM329.312 505.174L328.575 504.305L318.923 492.866V411.876L324.532 418.529L330.156 425.195V506.174L329.312 505.174ZM813.168 454.439V413.949L845.928 413.95V493.249L813.168 454.439ZM775.55 413.949H808.314V452.76H775.55V413.949ZM61.0327 414.273L95.2227 414.274L127.977 453.084H61.0331L61.0327 414.273ZM592.898 420.411H627.09L659.84 459.222H596.334V459.221H592.898V420.411ZM-118.183 420.713H-49.8219L-38.5875 434.023H-106.948L-118.183 420.713ZM-159.237 461.228V420.738L-126.475 420.738V500.038L-159.237 461.228ZM-196.855 420.738H-164.092V459.548H-196.855V420.738ZM-121.62 505.765V424.774L-110.386 438.094V519.073L-121.62 505.765ZM413.686 426.853H482.042L493.276 440.159H424.92L413.686 426.853ZM372.628 467.364V426.875L405.388 426.875V506.173L372.628 467.364ZM335.01 426.875H367.774V465.685H335.01V426.875ZM410.246 511.902V430.915L421.48 444.233V525.209L410.246 511.902ZM152.358 433.311L186.545 433.312L219.296 472.12H155.789V472.12H152.358V433.311ZM684.222 439.448L718.409 439.449L751.164 478.259H687.657V478.257L684.222 478.257V439.448ZM-67.9118 480.263V439.773L-35.1502 439.774L-35.1506 519.073L-67.9118 480.263ZM-105.53 439.773H-72.7673V478.584H-105.53V439.773ZM-26.8537 439.778H41.5032L52.7362 453.084H-15.6207L-26.8537 439.778ZM-19.898 537.132L-28.1324 527.386L-30.2933 524.827L-30.2928 443.841L-19.0598 457.158V538.125L-19.898 537.132ZM463.952 486.4V445.912L496.716 445.913V525.208L463.952 486.4ZM426.334 445.912H459.098V484.721H426.334V445.912ZM505.01 445.915H573.371L584.599 459.221H516.244L505.01 445.915ZM-288.18 446.235L-253.99 446.235L-221.239 485.045H-284.741V485.041H-288.18L-288.18 446.235ZM501.575 530.964V449.977L512.808 463.296V544.271L501.575 530.964ZM243.687 452.374H277.874L310.624 491.183H247.117V491.182L243.687 491.183V452.374ZM775.55 458.511H809.738L842.492 497.322H778.981V497.321L776.223 497.322H775.55V458.511ZM23.4151 499.325V458.838L56.1758 458.838L56.1754 538.134L23.4151 499.325ZM-14.2029 458.838H18.5582V497.646H-14.2029V458.838ZM64.4699 458.84H132.831L144.064 472.149H75.7048L64.4699 458.84ZM71.4294 556.195L61.0327 543.889L61.0331 462.9L72.2676 476.221V557.187L71.4294 556.195ZM555.28 505.462V464.974L588.04 464.975V544.271L555.28 505.462ZM517.662 464.974H550.426V503.783H517.662V464.974ZM596.334 464.977H664.694L675.932 478.285H607.572L596.334 464.977ZM-196.855 465.298L-162.665 465.299L-129.914 504.108H-193.414V504.103H-196.855V465.298ZM603.288 562.336L602.555 561.467L592.898 550.028V469.037L598.513 475.692L604.132 482.358V563.336L603.288 562.336ZM335.01 471.436L369.202 471.437L401.952 510.247H338.446V510.246H335.01V471.436ZM155.794 477.876H224.154L235.392 491.184H167.032L155.794 477.876ZM114.74 518.389V477.9L147.504 477.9V557.199L114.74 518.389ZM77.1226 477.9H109.886V516.71H77.1226V477.9ZM152.358 562.927V481.936L163.592 495.256V576.235L152.358 562.927ZM687.662 484.015H756.018L767.251 497.322H698.896L687.662 484.015ZM646.608 524.527V484.037H679.368V563.335L646.608 524.527ZM608.99 484.037H641.75V522.847H608.99V484.037ZM-105.53 484.335H-71.3398L-38.5875 523.145H-102.09V523.141H-105.53L-105.53 484.335ZM684.222 569.064V488.077L695.455 501.395V582.371L684.222 569.064ZM426.334 490.474L460.526 490.474L493.276 529.282H426.334V490.474ZM-284.737 490.797H-216.377L-205.142 504.105H-273.502L-284.737 490.797ZM-288.174 575.848L-288.174 494.857L-276.94 508.177V589.156L-288.174 575.848ZM206.064 537.425V496.935L238.828 496.936V576.235L206.064 537.425ZM168.446 496.935H201.21V535.746H168.446V496.935ZM247.122 496.94H315.483L326.716 510.247H258.355L247.122 496.94ZM254.081 594.294L245.819 584.516L243.687 581.989V501.002L254.92 514.32V595.287L254.081 594.294ZM737.932 543.562V503.075H770.692V582.371L737.932 543.562ZM700.314 503.075H733.073V541.883H700.314V503.075ZM784.605 509.731L778.986 503.077H847.346L858.58 516.386H790.224L784.605 509.731ZM-14.2029 503.399H19.9852L52.7362 542.207H-10.7629V542.203H-14.2029V503.399ZM786.784 601.436L785.226 599.59L778.921 592.124L775.55 588.128V507.137L786.784 520.457V601.436ZM517.662 509.535L551.849 509.536L584.599 548.344H517.662V509.535ZM-234.466 550.346V509.857H-201.704V589.156L-234.466 550.346ZM-272.085 509.857H-239.322V548.667H-272.085V509.857ZM-193.408 509.861H-125.048L-113.815 523.167H-182.175L-193.408 509.861ZM-186.456 607.217L-187.204 606.334L-196.847 594.91L-196.847 513.919L-185.612 527.239V608.219L-186.456 607.217ZM297.392 556.487V515.999L330.156 516L330.151 595.296L297.392 556.487ZM259.774 515.999H292.538V554.808H259.774V515.999ZM338.45 516.002H406.806L418.044 529.311H349.684L338.45 516.002ZM346.04 614.107L345.409 613.356L335.01 601.052V520.063L346.244 533.383V614.349L346.04 614.107ZM829.256 562.626V522.137L862.02 522.137V601.437L829.256 562.626ZM791.638 522.137H824.402V560.947H791.638V522.137ZM77.1226 522.461H111.314L144.064 561.27H80.5636V561.265L77.123 561.265L77.1226 522.461ZM608.99 528.598L643.178 528.599L675.932 567.409H608.99V528.598ZM-102.086 528.897H-33.726L-22.4911 542.205H-90.8517L-102.086 528.897ZM-143.139 569.408V528.918L-110.378 528.919V608.217L-143.139 569.408ZM-180.757 528.918H-147.995V567.729H-180.757V528.918ZM-105.522 613.95V532.959L-94.2889 546.277V627.256L-105.522 613.95ZM429.774 535.038H498.135L509.368 548.346H441.007L429.774 535.038ZM388.721 575.552V535.062H421.48V614.362L388.721 575.552ZM351.102 535.062H383.862V573.872H351.102V535.062ZM426.334 620.089V556.149L426.339 539.098L437.572 552.418V633.397L426.334 620.089ZM168.446 541.496L202.638 541.497L235.392 580.307H171.886V580.302L168.45 580.303L168.446 541.496ZM700.314 547.635L734.501 547.635L767.251 586.445H703.75V586.444H700.314V547.635ZM-51.8159 588.445V547.956H-19.0533V627.256L-51.8159 588.445ZM-89.4335 547.956H-56.6709V586.767H-89.4335V547.956ZM-10.7569 547.961H57.6028L68.8363 561.267H0.475708L-10.7569 547.961ZM-3.8063 645.317L-4.53415 644.455L-14.1964 633.01V606.013L-14.196 552.019L-2.96204 565.339V646.318L-3.8063 645.317ZM480.044 594.586V554.097L512.808 554.098V633.397L480.044 594.586ZM442.426 554.097H475.19V592.907H442.426V554.097ZM521.102 554.102H589.458L600.692 567.409H532.336L521.102 554.102ZM-272.085 554.417L-237.894 554.418L-205.142 593.228H-268.65V593.226L-272.084 593.227L-272.085 554.417ZM528.057 651.456L519.823 641.71L517.662 639.151V558.164L528.896 571.483V652.449L528.057 651.456ZM259.774 560.56L293.966 560.561L326.716 599.369H263.214V599.365H259.774V560.56ZM791.638 566.698H825.83L858.58 605.509H795.073V605.508H791.638V566.698ZM39.5115 607.508V567.019H72.274L72.2736 646.318L39.5115 607.508ZM1.89343 567.019H34.656V605.829H1.89343V567.019ZM80.5705 567.023L148.932 567.023L160.161 580.33H91.8031L80.5705 567.023ZM87.5215 664.38L86.7742 663.495L77.1305 652.071L77.1309 571.081L88.3658 584.401V665.38L87.5215 664.38ZM571.372 613.649V573.162L604.132 573.162V652.458L571.372 613.649ZM533.754 573.162H566.514V611.97H533.754V573.162ZM612.426 573.164H680.786L692.02 586.473H623.659L612.426 573.164ZM-180.757 573.48L-146.567 573.481L-113.815 612.291H-177.324V612.29L-180.757 612.291V573.48ZM619.385 670.518L608.99 658.214V577.225L620.224 590.544V671.511L619.385 670.518ZM351.102 579.623L385.29 579.623L418.04 618.432H354.542V618.427H351.102V579.623ZM171.891 586.059L240.251 586.058L251.485 599.367H183.129L171.891 586.059ZM130.837 626.57V586.08H163.601V665.379L130.837 626.57ZM93.2213 586.08H125.983V624.891H93.2213V586.08ZM168.455 671.111V590.121L179.689 603.439V684.418L168.455 671.111ZM703.75 592.2H772.11L783.348 605.508H714.983L703.75 592.2ZM662.696 632.713V592.224L695.46 592.224V671.524L662.696 632.713ZM625.078 592.224H657.842V631.034H625.078V592.224ZM-89.4335 592.517L-55.2439 592.518L-22.4911 631.328H-85.999V631.326H-89.433L-89.4335 592.517ZM700.314 677.251V596.26L711.548 609.581V690.559L700.314 677.251ZM442.426 598.659L476.618 598.659L509.368 637.469H445.866V637.464H442.426V598.659ZM-268.645 598.982H-200.285L-189.05 612.291H-257.411L-268.645 598.982ZM-272.083 684.033L-272.082 603.042L-260.848 616.362V697.341L-272.083 684.033ZM222.161 645.607V605.118L254.925 605.119V684.418L222.161 645.607ZM184.543 605.118H217.307V643.929H184.543V605.118ZM263.223 605.123L331.579 605.123L342.813 618.429H274.452L263.223 605.123ZM270.173 702.479L269.441 701.614L259.783 690.172V609.181L268.773 619.839L271.017 622.501V703.479L270.173 702.479ZM754.02 651.749V611.26H786.784V690.559L754.02 651.749ZM716.402 611.26H749.166V650.07H716.402V611.26ZM795.078 611.264H863.439L874.672 624.573H806.311L795.078 611.264ZM1.89343 611.58H36.0835L68.8363 650.39H5.3284V650.388H1.89392L1.89343 611.58ZM802.037 708.618L791.638 696.314V615.325L802.876 628.645V709.611L802.037 708.618ZM533.754 617.723L567.942 617.724L600.692 656.532H537.195V656.527L533.754 656.527V617.723ZM-218.375 658.531V618.042L-185.612 618.042L-185.613 697.341L-218.375 658.531ZM-255.993 618.042H-223.23V656.852H-255.993V618.042ZM-177.319 618.045H-108.959L-97.7244 631.355H-166.085L-177.319 618.045ZM-180.757 703.097L-180.757 622.106L-169.522 635.426V716.406L-180.757 703.097ZM313.489 664.67V624.18L346.253 624.18V703.481L313.489 664.67ZM275.871 624.18H308.635V662.99H275.871V624.18ZM354.547 624.185H422.908L434.141 637.491H365.781L354.547 624.185ZM362.345 722.542L360.75 720.657L351.107 709.234V628.243L362.345 641.564V722.542ZM845.348 670.813V630.324H878.107V709.624L845.348 670.813ZM807.73 630.324H840.489V669.134H807.73V630.324ZM93.2213 630.642H127.411L160.161 669.453H96.6544V669.452H93.2213V630.642ZM625.078 636.785L659.27 636.786L692.02 675.593H628.518V675.589L625.078 675.589V636.785ZM-85.9944 637.082H-17.6342L-6.39886 650.39H-74.7599L-85.9944 637.082ZM-127.049 677.596V637.106L-94.2866 637.106L-94.2871 716.406L-127.049 677.596ZM-164.667 637.106H-131.905V675.916H-164.667V637.106ZM-89.4316 722.133V641.142L-78.1972 654.462V735.441L-89.4316 722.133ZM445.871 643.221L514.231 643.22L525.465 656.529H457.104L445.871 643.221ZM404.817 683.732V643.243H437.577V722.541L404.817 683.732ZM367.199 643.243H399.963V682.053H367.199V643.243ZM442.435 728.273V647.283L453.669 660.601V741.58L442.435 728.273ZM184.543 649.679H218.735L251.485 688.49H187.978V688.488L184.547 688.488L184.543 649.679ZM716.402 655.82L750.594 655.821L783.348 694.631H719.842V694.627H716.402V655.82ZM-35.7237 696.63V656.141L-2.96158 656.142L-2.96204 735.441L-35.7237 696.63ZM-73.3422 656.141H-40.5796V694.952H-73.3422V656.141ZM5.33441 656.146H73.6913L84.9248 669.452H16.5679L5.33441 656.146ZM1.89529 741.195L1.89575 660.208L13.1288 673.526V754.501L1.89529 741.195ZM496.141 702.77V662.281H528.905L528.9 741.58L496.141 702.77ZM458.523 662.281H491.287V701.091H458.523V662.281ZM537.199 662.285L605.56 662.284L616.793 675.591H548.433L537.199 662.285ZM-255.993 662.603H-221.803L-189.05 701.414H-255.992L-255.993 662.603ZM544.149 759.641L543.421 758.779L533.759 747.333V720.336V666.343L544.993 679.663V760.641L544.149 759.641ZM275.871 668.742L310.063 668.742L320.986 681.684L342.813 707.552H279.306V707.55H275.871V668.742ZM807.73 674.885L841.917 674.885L874.672 713.694H811.17V713.689H807.73V674.885ZM55.6028 715.693V675.205L88.3644 675.206L88.364 754.501L55.6028 715.693ZM17.9852 675.205H50.7464V714.014H17.9852V675.205ZM96.6581 675.208H165.02L176.253 688.516H107.893L96.6581 675.208ZM93.2213 760.259L93.2218 679.268L104.457 692.589V773.568L93.2213 760.259ZM587.469 721.832V681.342H620.229V760.642L587.469 721.832ZM549.851 681.342H582.611V720.152H549.851V681.342ZM628.527 681.347H696.888L708.122 694.654H639.761L628.527 681.347ZM-164.667 681.667H-130.477L-97.7244 720.478H-164.667L-164.667 681.667ZM635.477 778.704L634.731 777.82L625.087 766.396V685.405L636.321 698.725V779.704L635.477 778.704ZM367.199 687.803L401.387 687.804L434.141 726.614H367.199V687.803ZM187.983 694.243H256.343L267.577 707.552H199.216L187.983 694.243ZM146.929 734.758V694.267L179.693 694.268V773.568L146.929 734.758ZM109.311 694.267H142.075V733.078H109.311V694.267ZM184.547 779.295V698.304L195.781 711.624V792.603L184.547 779.295ZM719.846 700.382H788.207L799.441 713.691H731.084L719.846 700.382ZM678.793 740.894V700.405L711.557 700.405V779.703L678.793 740.894ZM641.175 700.405H673.939V739.215H641.175V700.405ZM-73.3422 700.702H-39.1526L-6.39886 739.513H-73.3412L-73.3422 700.702ZM716.411 785.436V704.445L727.645 717.763V798.743L716.411 785.436ZM458.523 706.841H492.71L525.465 745.652H461.958V745.649H458.523V706.841ZM238.253 753.793V713.303L271.017 713.304V792.603L238.253 753.793ZM200.635 713.303H233.399V752.114H200.635V713.303ZM279.311 713.307H347.672L358.905 726.614H290.545L279.311 713.307ZM275.876 798.357V717.37L287.104 730.688V811.663L275.876 798.357ZM770.117 759.932V719.442L802.881 719.442V798.743L770.117 759.932ZM732.499 719.442H765.263V758.252H732.499V719.442ZM811.175 719.447H879.535L890.769 732.753H822.408L811.175 719.447ZM17.9852 719.767H52.1734L84.9248 758.575H17.9857L17.9852 719.767ZM818.129 816.803L817.396 815.938L807.739 804.496V723.505L818.973 736.825V817.803L818.129 816.803ZM549.851 725.904H584.039L616.793 764.714H553.282V764.712H549.851V725.904ZM329.581 772.855V732.368H362.341V811.663L329.581 772.855ZM291.963 732.368H324.723V771.176H291.963V732.368ZM370.635 732.37H438.995L450.233 745.679H381.873L370.635 732.37ZM367.199 817.421V736.431L378.433 749.75V830.729L367.199 817.421ZM861.445 778.993V738.504L894.209 738.505V817.804L861.445 778.993ZM823.827 738.504H856.591V777.315H823.827V738.504ZM109.311 738.828L143.503 738.829L176.253 777.639H109.311V738.828ZM641.175 744.966H675.367L708.122 783.776H641.175V744.966ZM461.963 751.406H530.324L541.557 764.714H473.197L461.963 751.406ZM420.905 791.919V751.43L453.669 751.43V830.729L420.905 791.919ZM383.287 751.43H416.051V790.24H383.287V751.43ZM458.523 836.457V755.466L469.761 768.786V849.765L458.523 836.457ZM200.635 757.865H234.827L267.577 796.675H200.635V757.865ZM732.499 764.003L766.69 764.004L799.441 802.814H735.934V802.811L732.499 802.812V764.003ZM512.233 810.955V770.465L544.993 770.466V849.765L512.233 810.955ZM474.615 770.465H507.379V809.276H474.615V770.465ZM553.291 770.47H621.647L632.881 783.776H564.525L553.291 770.47ZM549.851 855.519V774.532L561.085 787.85V868.826L549.851 855.519ZM291.963 776.928L326.15 776.929L358.905 815.737H291.963V776.928ZM823.827 783.065L858.019 783.066L890.769 821.876H827.262V821.875L823.827 821.876V783.065ZM603.557 830.017V789.529H636.321V868.826L603.557 830.017ZM565.943 789.529H598.703V828.338H565.943V789.529ZM644.615 789.532H712.976L724.209 802.841H655.849L644.615 789.532ZM641.175 874.583V793.593L652.413 806.913V887.891L641.175 874.583ZM383.287 795.991L417.479 795.991L450.233 834.801H383.292L383.287 795.991ZM735.939 808.568H804.299L815.533 821.876H747.172L735.939 808.568ZM694.885 849.081V808.592H727.649L727.645 887.891L694.885 849.081ZM657.267 808.592H690.031V847.402H657.267V808.592ZM732.503 893.619V812.628L743.737 825.948V906.927L732.503 893.619ZM474.615 815.026L508.802 815.027L541.557 853.837H474.615V815.026ZM786.209 868.116V827.627L818.973 827.628V906.927L786.209 868.116ZM748.591 827.627H781.355V866.437H748.591V827.627ZM827.267 827.632H895.628L906.861 840.94H838.5L827.267 827.632ZM823.827 912.683V831.692L835.06 845.012V925.991L823.827 912.683ZM565.943 834.09L600.131 834.091L632.881 872.899H565.943V834.09ZM877.537 887.181V846.692L910.297 846.692V925.991L877.537 887.181ZM839.919 846.692H872.678V885.502H839.919V846.692ZM657.267 853.153H691.454L724.209 891.964H657.267V853.153ZM748.591 872.188H782.783L815.533 910.999H748.591V872.188ZM839.919 891.252H874.106L906.861 930.063H839.919V891.252Z" fill="#DCEFEF"/>
</g>
</svg>
